<svg width="128" height="128" xmlns="http://www.w3.org/2000/svg">

 <g>
  <title>Layer 1</title>
  <path id="svg_1" d="m103.60134,78.45416l13.20813,12.47693l-39.04452,36.9439l-13.27256,0l0,-12.5378l39.10895,-36.88304m12.69269,-10.65104c0.90202,0 1.73961,0.36518 2.44834,1.03467l8.24703,7.79048c1.41746,1.27813 1.41746,3.40833 0,4.68646l-6.44299,6.08631l-13.20813,-12.47693l6.44299,-6.08631c0.70873,-0.66949 1.61075,-1.03467 2.51277,-1.03467m-26.02968,-55.56801l0,36.51786l-12.88598,-12.17262l-12.88598,12.17262l0,-36.51786l-25.77196,0l0,97.38095l12.88598,0l0,12.17262l-25.77196,0c-6.76514,0 -12.88598,-5.78199 -12.88598,-12.17262l0,-6.08631l-12.88598,0l0,-12.17262l12.88598,0l0,-24.34524l-12.88598,0l0,-12.17262l12.88598,0l0,-24.34524l-12.88598,0l0,-12.17262l12.88598,0l0,-6.08631c0,-6.7558 5.79869,-12.17262 12.88598,-12.17262l77.31588,0c6.76514,0 12.88598,5.78199 12.88598,12.17262l0,36.51786l-12.88598,12.17262l0,-48.69048l-12.88598,0m-77.31588,6.08631l0,12.17262l12.88598,0l0,-12.17262l-12.88598,0m0,36.51786l0,12.17262l12.88598,0l0,-12.17262l-12.88598,0m0,36.51786l0,12.17262l12.88598,0l0,-12.17262l-12.88598,0z"/>
 </g>
</svg>